# xmcd
#
# Track frame offsets:
#	150
#	11019
#	23701
#	33304
#	48610
#	67511
#	79908
#	88252
#	98187
#	110391
#	122655
#	136736
#	148344
#	163043
#
# Disc length: 2389 seconds
# Revision: 2
# Processed by: cddbd v1.5.2PL0 Copyright (c) Steve Scherf et al.
# Submitted via: dBpowerAMP V12.0
#
DISCID=b509530e
DTITLE=James Reams and the Barnstormers - Troubled Times
DYEAR=2005
DGENRE=Country
TTITLE0=Head of the Holler
TTITLE1=Cruel Willie
TTITLE2=Ain'ta Bump in the Road
TTITLE3=Lost Train Blues
TTITLE4=Hills of My County
TTITLE5=Erin's Flight
TTITLE6=You Better Wake Up
TTITLE7=Lazarus
TTITLE8=Eye of the Storm
TTITLE9=Lost Forest
TTITLE10=Troubled Times
TTITLE11=Cool Down on the Banks of Jordan
TTITLE12=Winsboro Cotton Mill Blues
TTITLE13=Cold Statesville Ground
EXTD=
EXTT0=
EXTT1=
EXTT2=
EXTT3=
EXTT4=
EXTT5=
EXTT6=
EXTT7=
EXTT8=
EXTT9=
EXTT10=
EXTT11=
EXTT12=
EXTT13=
PLAYORDER=
